<?xml version="1.0" standalone="no"?>
<!DOCTYPE svg PUBLIC "-//W3C//DTD SVG 20010904//EN"
 "http://www.w3.org/TR/2001/REC-SVG-20010904/DTD/svg10.dtd">
<svg version="1.0" xmlns="http://www.w3.org/2000/svg"
 width="512.000000pt" height="512.000000pt" viewBox="0 0 512.000000 512.000000"
 preserveAspectRatio="xMidYMid meet">
<metadata>
Created by potrace 1.14, written by Peter Selinger 2001-2017
</metadata>
<g transform="translate(0.000000,512.000000) scale(0.100000,-0.100000)"
fill="#000000" stroke="none">
<path d="M2514 5059 c-5 -8 -3 -10 6 -4 9 5 11 4 6 -4 -4 -6 -13 -8 -19 -4
-19 12 -39 13 -57 3 -11 -6 -21 -5 -27 1 -8 8 -13 7 -17 0 -5 -8 -13 -8 -29 1
-19 10 -20 9 -10 -3 11 -13 7 -15 -25 -14 -21 1 -44 5 -51 10 -10 6 -12 4 -6
-5 6 -10 3 -12 -13 -8 -14 4 -22 1 -25 -11 -4 -12 -5 -12 -6 3 -1 20 -1 20
-16 0 -8 -11 -14 -14 -15 -6 0 9 -5 10 -17 4 -10 -5 -24 -7 -30 -5 -7 3 -13
-1 -13 -7 0 -9 -5 -9 -17 1 -14 12 -16 12 -11 -2 4 -9 1 -16 -8 -16 -7 0 -10
5 -7 10 4 7 -1 8 -13 3 -10 -5 -26 -9 -34 -10 -8 0 -21 -8 -28 -16 -8 -8 -11
-9 -7 -2 7 14 -11 17 -19 3 -3 -5 -19 -8 -36 -7 -21 2 -27 -1 -20 -9 10 -12 6
-13 -37 -16 -10 -1 -24 -7 -32 -13 -11 -8 -13 -8 -7 1 5 9 2 11 -8 7 -9 -3
-14 -10 -11 -14 3 -5 -4 -6 -15 -3 -13 3 -20 0 -20 -8 0 -11 -2 -11 -10 1 -8
12 -10 12 -11 -5 0 -11 -3 -15 -6 -8 -3 9 -11 7 -25 -7 -16 -15 -25 -17 -35
-9 -9 9 -13 8 -13 0 0 -7 -4 -9 -10 -6 -5 3 -10 1 -10 -4 0 -6 -12 -11 -26
-11 -17 0 -23 -4 -18 -12 5 -8 2 -9 -9 -5 -10 4 -17 2 -17 -4 0 -6 -7 -9 -15
-5 -8 3 -14 0 -12 -6 1 -7 -7 -12 -18 -13 -11 0 -20 -5 -20 -12 0 -6 -4 -15
-9 -20 -5 -4 -6 -3 -3 3 4 7 0 14 -8 18 -8 3 -14 2 -12 -2 1 -4 -2 -8 -6 -9
-5 -1 -14 -9 -20 -17 -7 -9 -24 -17 -39 -18 -20 -2 -24 -5 -17 -14 8 -9 4 -12
-15 -10 -14 2 -24 0 -22 -3 2 -3 -2 -11 -9 -18 -11 -10 -15 -10 -18 0 -3 7 -6
4 -6 -6 -1 -10 -5 -15 -11 -12 -5 3 -10 1 -10 -5 0 -6 -4 -8 -10 -5 -5 3 -10
-2 -11 -12 0 -10 -3 -13 -5 -6 -6 13 -34 6 -34 -9 0 -5 6 -6 13 -2 6 4 8 3 4
-1 -4 -5 -14 -10 -22 -12 -8 -2 -23 -5 -32 -7 -11 -2 -17 -10 -15 -20 3 -15 0
-16 -19 -6 -12 7 -19 8 -15 2 3 -5 -1 -15 -9 -22 -8 -7 -13 -16 -10 -20 3 -5
-4 -6 -14 -3 -21 5 -46 -28 -33 -43 4 -5 -2 -2 -12 6 -13 10 -17 10 -12 3 4
-8 1 -13 -8 -13 -9 0 -16 -7 -16 -15 0 -8 -5 -15 -11 -15 -5 0 -7 5 -3 12 4 7
3 8 -5 4 -6 -4 -9 -11 -6 -16 3 -4 -2 -11 -11 -14 -8 -3 -12 -10 -9 -16 3 -5
0 -7 -9 -4 -9 3 -17 -2 -21 -15 -3 -12 -11 -19 -16 -16 -5 4 -9 1 -9 -5 0 -6
-4 -8 -10 -5 -5 3 -7 0 -4 -8 3 -8 0 -18 -7 -23 -8 -5 -10 -3 -4 7 5 8 -8 -3
-28 -24 -23 -25 -41 -36 -49 -31 -8 5 -8 1 2 -11 8 -10 10 -16 5 -13 -13 8
-39 -7 -41 -22 -1 -5 -2 -14 -3 -20 0 -5 -8 -7 -16 -3 -9 3 -15 2 -14 -3 4
-21 -2 -34 -13 -32 -8 2 -12 -5 -10 -15 2 -9 -5 -20 -14 -24 -9 -3 -28 -17
-43 -31 -14 -14 -19 -22 -11 -18 9 5 8 2 -2 -7 -10 -8 -15 -17 -11 -20 3 -4 2
-7 -3 -7 -6 0 -19 -7 -30 -16 -10 -8 -13 -13 -6 -9 20 10 13 -9 -8 -23 -12 -7
-18 -18 -13 -25 5 -9 4 -9 -8 0 -12 10 -15 8 -15 -7 0 -10 5 -16 10 -13 5 3 6
1 2 -5 -4 -7 -14 -12 -22 -12 -8 0 -14 -7 -14 -15 0 -8 -5 -15 -11 -15 -5 0
-8 -3 -6 -7 7 -11 -19 -33 -29 -25 -5 4 -2 -2 6 -12 10 -13 10 -17 3 -12 -12
7 -18 -5 -14 -28 1 -5 -5 -6 -13 -3 -10 4 -14 0 -11 -13 2 -11 -4 -24 -13 -30
-9 -5 -14 -10 -10 -10 5 0 -1 -9 -13 -21 -11 -11 -18 -27 -15 -35 3 -8 -1 -14
-11 -14 -12 0 -13 -3 -4 -14 9 -11 6 -18 -17 -35 -23 -16 -29 -27 -27 -51 2
-25 0 -28 -11 -19 -12 10 -13 9 -8 -5 4 -9 1 -16 -6 -16 -10 0 -10 -3 -1 -14
9 -11 8 -17 -7 -28 -22 -15 -39 -53 -19 -43 6 4 5 1 -4 -7 -22 -18 -37 -63
-18 -54 8 4 6 1 -5 -8 -10 -8 -15 -20 -10 -27 4 -7 3 -10 -3 -6 -6 4 -13 -2
-16 -14 -5 -17 -3 -18 11 -8 9 7 2 -3 -16 -23 -29 -30 -32 -39 -23 -56 14 -26
14 -32 0 -32 -5 0 -7 5 -3 12 4 6 3 8 -4 5 -11 -8 -11 -25 1 -44 4 -7 0 -16
-10 -22 -10 -6 -15 -11 -10 -11 4 0 1 -13 -8 -30 -10 -19 -11 -30 -5 -30 6 0
8 -5 5 -10 -4 -6 -12 -7 -18 -3 -7 4 -4 -5 6 -20 14 -22 15 -25 2 -20 -9 3
-15 2 -14 -3 4 -22 -2 -35 -13 -29 -7 4 -4 0 6 -9 17 -14 18 -16 2 -22 -15 -6
-15 -7 1 -20 15 -11 15 -13 2 -8 -10 3 -19 -1 -23 -11 -3 -9 -2 -13 4 -10 14
9 12 -8 -2 -24 -11 -11 -10 -12 2 -6 12 6 13 5 3 -6 -15 -15 -18 -33 -5 -25 5
3 9 -1 9 -9 0 -8 -5 -13 -10 -12 -5 1 -12 -4 -15 -12 -2 -8 -1 -11 4 -8 5 3 9
-5 9 -18 0 -14 -5 -21 -13 -17 -16 6 -13 -28 3 -41 7 -6 6 -10 -1 -13 -7 -3
-10 -14 -7 -24 3 -12 0 -20 -7 -20 -9 0 -9 -4 1 -17 10 -11 10 -14 2 -9 -16 9
-16 1 -2 -26 9 -16 8 -19 -2 -13 -8 6 -11 4 -6 -7 3 -9 0 -21 -6 -28 -9 -10
-9 -11 0 -6 13 7 12 -31 0 -51 -4 -6 -2 -15 4 -19 8 -4 7 -9 -2 -15 -10 -6
-11 -9 -1 -9 6 0 12 -5 12 -11 0 -5 -4 -7 -10 -4 -6 3 -7 -1 -4 -9 3 -9 11
-13 18 -9 6 4 5 -1 -3 -10 -7 -9 -10 -17 -5 -17 4 0 3 -5 -3 -11 -13 -13 -6
-42 8 -33 5 3 6 -2 3 -10 -3 -9 -11 -13 -16 -10 -6 4 -5 -3 1 -15 7 -11 9 -21
5 -21 -3 0 0 -8 7 -17 10 -11 10 -14 2 -9 -7 4 -13 3 -13 -3 0 -5 8 -15 18
-20 16 -10 16 -10 0 -11 -9 0 -20 -5 -24 -12 -4 -7 -3 -8 4 -4 7 4 12 1 12 -8
0 -9 6 -16 13 -17 6 0 3 -4 -8 -9 -19 -8 -19 -9 -1 -9 15 -1 16 -4 6 -16 -7
-8 -8 -15 -3 -15 6 0 8 -12 6 -28 -4 -21 -2 -24 6 -12 7 11 9 1 5 -34 -4 -31
-2 -46 5 -42 5 4 13 1 17 -5 4 -7 3 -9 -3 -6 -6 4 -13 0 -17 -8 -3 -8 -1 -15
4 -15 6 0 10 -5 10 -11 0 -5 -6 -7 -12 -3 -7 4 -4 -3 7 -16 11 -13 14 -20 6
-15 -11 6 -13 4 -8 -9 4 -10 7 -20 7 -22 0 -3 4 -3 8 0 5 3 9 -1 9 -9 0 -8 -3
-12 -7 -10 -4 2 -7 -2 -7 -10 0 -8 5 -12 10 -8 5 3 6 -4 2 -17 -5 -16 -4 -20
5 -15 9 5 10 1 5 -15 -5 -16 -4 -20 5 -15 9 6 9 3 1 -12 -7 -15 -6 -25 5 -41
8 -12 12 -22 7 -22 -4 0 -1 -5 7 -10 12 -8 12 -10 -5 -10 -19 0 -18 -1 2 -15
15 -11 20 -23 17 -40 -3 -16 2 -27 13 -34 12 -7 14 -10 4 -11 -10 0 -11 -3 -2
-13 6 -8 8 -17 4 -20 -3 -4 1 -15 10 -25 10 -10 14 -22 10 -25 -3 -4 -1 -7 6
-7 7 0 10 -4 6 -9 -3 -5 2 -16 10 -24 18 -19 20 -51 3 -41 -8 4 -10 3 -5 -2 5
-5 13 -10 18 -10 5 -1 12 -2 15 -3 4 0 0 -9 -7 -18 -10 -11 -10 -14 -1 -9 7 4
12 1 12 -8 0 -9 4 -16 10 -16 5 0 9 -3 9 -8 -3 -18 2 -33 9 -28 4 2 8 -3 9
-12 4 -46 8 -59 19 -55 8 3 11 -3 10 -14 -3 -21 15 -54 26 -47 7 5 12 -21 10
-56 0 -11 4 -9 15 5 15 20 15 20 8 -2 -4 -14 -2 -23 5 -23 6 0 8 -4 5 -10 -3
-5 2 -10 12 -10 15 0 16 -2 3 -10 -13 -8 -12 -10 3 -10 10 0 15 -4 12 -10 -3
-5 -1 -10 5 -10 6 0 8 -5 4 -12 -5 -8 -2 -9 11 -4 16 6 16 4 4 -11 -9 -11 -10
-14 -1 -9 7 4 12 1 12 -8 0 -9 5 -16 10 -16 6 0 10 -7 10 -16 0 -8 4 -12 10
-9 6 3 7 -1 4 -9 -3 -9 -1 -16 6 -16 6 0 8 -5 4 -12 -5 -8 -2 -9 10 -5 11 5
15 3 10 -4 -4 -7 4 -21 17 -31 13 -11 19 -17 13 -14 -6 3 -11 -1 -11 -9 0 -8
4 -12 9 -9 4 3 8 0 8 -6 0 -6 5 -8 10 -5 6 3 10 -1 10 -10 0 -8 7 -18 16 -22
8 -3 13 -12 10 -20 -3 -8 -1 -11 4 -8 9 6 14 -8 11 -28 -1 -4 7 -3 18 2 16 9
18 8 14 -9 -4 -14 0 -20 11 -20 9 0 16 -5 16 -11 0 -5 4 -7 10 -4 6 4 7 -1 3
-11 -5 -13 -3 -15 8 -9 12 8 12 6 0 -9 -8 -9 -10 -16 -5 -15 23 4 45 -2 39
-11 -3 -5 -1 -10 5 -10 6 0 8 -5 4 -12 -5 -7 -2 -9 8 -5 11 4 18 -1 21 -14 3
-11 15 -23 26 -26 11 -3 18 -9 15 -14 -3 -5 2 -9 12 -9 13 0 14 -3 5 -14 -10
-12 -8 -13 10 -9 15 4 20 2 15 -5 -4 -6 6 -17 22 -26 16 -8 32 -22 35 -31 4
-8 13 -15 21 -15 9 0 20 -9 26 -20 6 -11 20 -20 30 -20 11 0 20 -4 20 -10 0
-16 54 -60 68 -55 7 3 11 1 8 -4 -7 -11 22 -23 35 -16 5 4 6 -2 2 -12 -3 -10
-2 -15 2 -10 5 4 17 -5 28 -20 13 -20 17 -22 13 -8 -6 19 -5 19 7 3 8 -10 17
-15 20 -11 4 3 7 -1 7 -10 0 -9 5 -19 12 -23 8 -5 9 -2 4 11 -6 18 -6 18 16
-1 13 -10 26 -23 29 -28 4 -5 13 -5 20 -1 8 5 11 5 7 1 -10 -12 15 -34 31 -28
9 3 12 1 7 -6 -5 -8 1 -12 18 -12 14 0 28 -5 32 -12 5 -7 3 -8 -6 -3 -8 5 -11
4 -6 -3 4 -6 13 -9 21 -5 8 3 15 0 15 -6 0 -6 7 -11 15 -11 8 0 15 -6 15 -12
0 -9 4 -8 10 2 9 13 10 13 11 0 1 -8 1 -18 1 -21 -1 -4 7 -5 17 -2 10 2 25 -3
35 -12 12 -12 16 -13 16 -3 0 9 3 9 8 2 4 -6 24 -17 45 -24 21 -6 41 -18 44
-25 2 -8 11 -11 20 -8 8 3 19 0 24 -8 7 -12 9 -12 9 1 0 11 2 12 8 3 5 -7 20
-14 35 -15 20 -2 23 -5 15 -15 -15 -18 -3 -16 16 3 13 12 16 13 16 1 0 -8 9
-13 23 -13 13 1 21 -4 19 -12 -2 -10 2 -10 18 -2 17 9 20 8 20 -7 0 -10 4 -14
8 -8 10 14 32 17 32 4 0 -6 9 -9 20 -6 11 3 20 1 20 -3 0 -5 11 -7 25 -5 14 1
28 -2 31 -6 3 -5 14 -9 25 -9 11 0 18 -4 15 -8 -2 -4 4 -8 14 -8 10 0 16 4 14
8 -3 4 7 1 22 -7 15 -7 32 -11 39 -9 7 3 16 0 20 -6 5 -8 11 -8 21 1 10 8 14
8 14 0 0 -6 5 -11 11 -11 5 0 8 4 5 8 -3 5 1 9 9 9 8 0 12 -4 9 -9 -3 -4 0 -8
5 -8 6 0 11 6 12 13 0 6 4 3 9 -8 6 -13 9 -15 9 -5 1 13 2 13 11 0 8 -12 10
-12 11 5 l0 20 9 -20 c6 -14 9 -15 10 -5 1 10 4 9 10 -5 l9 -20 1 20 c1 19 1
19 11 2 8 -14 14 -16 25 -6 11 9 14 8 14 -2 0 -11 2 -11 10 1 9 13 11 13 20 0
8 -12 10 -12 10 -1 0 10 3 11 13 3 8 -7 18 -7 27 -2 8 5 19 6 24 2 6 -3 19 -7
28 -7 15 -1 15 1 5 13 -10 13 -9 14 10 4 27 -15 36 -15 27 -1 -4 7 1 7 16 -1
12 -7 20 -8 16 -2 -3 5 1 12 9 16 8 3 17 1 21 -5 8 -14 79 -6 100 12 11 9 15
9 10 2 -5 -9 0 -13 14 -13 14 0 19 4 14 13 -5 9 -4 9 6 0 11 -10 16 -9 27 5 8
9 12 11 8 5 -3 -7 -2 -13 2 -13 5 0 15 6 22 13 11 10 13 10 7 0 -4 -7 -2 -13
3 -13 6 0 11 5 11 11 0 8 4 8 14 0 11 -9 16 -9 22 0 5 8 3 9 -6 4 -9 -5 -11
-4 -6 3 5 9 13 9 28 1 13 -7 18 -7 14 -1 -3 6 -2 13 4 17 5 3 10 2 10 -3 0 -5
7 -9 15 -9 8 0 11 5 8 10 -4 6 3 8 15 5 15 -4 22 -2 22 9 0 8 5 11 10 8 6 -4
8 -12 4 -18 -3 -7 2 -3 10 7 11 14 16 15 16 6 0 -9 5 -8 16 6 8 10 13 13 9 7
-3 -7 -1 -13 4 -13 6 0 11 5 11 11 0 8 5 7 15 -1 13 -11 14 -10 9 3 -4 12 0
15 20 13 14 -2 26 0 26 5 0 5 7 6 15 3 8 -4 15 -1 15 5 0 6 9 11 20 11 11 0
20 4 20 10 0 5 6 7 14 4 7 -3 21 2 30 11 11 11 16 12 16 4 0 -7 7 -4 15 7 15
19 15 19 9 -1 -5 -17 -2 -16 15 5 11 14 21 19 21 12 0 -7 5 -10 10 -7 6 4 8
10 5 15 -3 4 4 6 15 3 11 -3 20 0 20 6 0 6 3 10 8 10 19 -3 33 2 27 11 -4 6 1
7 11 3 13 -5 15 -3 9 7 -6 9 -4 11 4 6 7 -5 18 -2 24 7 7 8 21 17 31 21 17 6
17 4 5 -11 -7 -10 3 -3 23 15 26 24 38 30 43 21 5 -7 4 -10 -2 -6 -5 3 -10 0
-10 -8 0 -11 4 -12 14 -4 7 6 11 15 8 19 -3 5 8 15 24 23 22 11 31 12 35 3 2
-6 5 0 5 14 1 20 3 22 11 10 9 -14 15 -7 11 14 -1 5 8 6 19 3 15 -4 20 -2 17
7 -3 8 6 19 19 25 14 6 23 7 19 2 -3 -5 -2 -12 3 -15 5 -3 9 1 10 9 1 8 3 22
4 29 1 12 6 13 21 4 14 -7 17 -7 13 1 -4 6 -2 11 4 11 6 0 9 4 6 9 -4 5 4 7
16 4 19 -4 20 -3 8 6 -14 10 -8 13 17 10 3 0 10 6 15 15 5 9 13 14 19 11 5 -3
6 2 3 12 -5 16 -3 15 12 -2 12 -15 15 -16 11 -4 -7 21 32 55 58 51 12 -2 16 0
8 5 -8 6 -7 13 4 28 16 20 16 20 9 0 -5 -13 5 -7 28 18 20 20 39 36 44 35 4
-2 22 12 40 31 33 35 40 47 20 35 -7 -5 -8 -3 -3 5 4 7 16 11 26 8 11 -3 17
-1 13 4 -3 5 0 9 6 9 6 0 8 5 5 10 -3 6 1 10 9 10 14 0 20 11 18 31 -1 4 17
21 39 38 22 18 37 35 35 39 -2 4 3 16 11 27 15 19 15 19 8 -5 -7 -24 -7 -24 8
-5 8 11 13 23 11 27 -3 5 0 8 5 8 6 0 11 7 11 16 0 10 6 14 15 10 8 -3 14 -2
14 2 -3 20 2 33 11 27 6 -4 7 1 3 11 -4 12 -3 15 5 10 8 -5 12 0 12 14 0 14 4
19 12 14 7 -5 9 -2 5 9 -4 11 -2 14 9 10 9 -3 14 0 12 8 -2 8 2 13 9 12 7 -2
10 6 8 17 -3 14 2 20 13 20 13 0 14 2 4 9 -10 6 -8 10 8 14 13 3 20 11 18 19
-3 7 7 21 21 32 17 12 20 16 7 12 -15 -5 -14 -1 8 20 15 15 25 33 22 41 -3 7
1 13 11 13 13 0 13 3 3 16 -8 8 -9 14 -4 13 26 -5 36 2 31 21 -3 11 -1 18 4
14 5 -3 9 2 9 11 0 10 5 13 13 9 7 -5 6 0 -3 11 -9 11 -10 16 -2 11 7 -4 12
-1 12 8 0 9 8 16 18 17 11 0 12 2 4 6 -10 4 -10 8 -1 19 6 7 8 21 5 30 -6 15
-4 15 11 3 9 -8 14 -9 10 -2 -4 7 0 17 10 23 17 11 17 11 1 6 -10 -3 -18 -1
-18 4 0 6 5 10 11 10 6 0 8 7 5 16 -5 13 -4 14 7 5 12 -9 14 -6 12 14 -2 14 1
25 6 25 5 0 9 7 9 16 0 8 5 12 10 9 6 -3 10 -2 10 4 0 5 -6 12 -12 14 -10 4
-10 6 0 6 7 1 10 6 7 11 -3 6 -1 10 5 10 6 0 10 8 8 17 -2 10 5 26 14 35 10
10 18 24 18 31 0 8 -4 7 -10 -3 -6 -9 -10 -10 -10 -3 0 6 5 15 10 18 6 3 10
15 10 26 0 10 6 19 13 19 8 0 7 4 -3 10 -13 8 -12 10 3 10 15 0 16 3 7 20 -8
16 -8 20 2 18 8 -2 13 10 13 38 0 29 4 40 13 37 6 -3 12 -1 12 4 0 5 -6 15
-12 22 -8 9 -8 11 -2 8 15 -9 27 20 12 29 -7 5 -5 12 7 21 14 9 15 13 4 13
-10 1 -9 4 4 11 14 8 16 14 6 25 -8 10 -8 14 -1 14 7 0 9 7 5 17 -4 10 -2 14
4 10 5 -3 10 0 10 8 0 8 -5 12 -10 8 -5 -3 -2 5 7 19 14 22 14 26 0 46 -12 18
-13 21 0 16 17 -6 31 12 16 21 -8 5 -7 12 2 23 10 12 10 14 0 8 -15 -9 -16 6
0 22 9 9 9 12 -3 12 -10 1 -9 3 4 11 10 6 14 15 10 22 -13 20 -14 49 -2 41 8
-4 8 -1 1 12 -5 11 -6 28 -1 39 12 30 11 35 -8 29 -15 -5 -15 -4 1 6 15 10 16
14 5 21 -11 7 -10 9 4 9 17 0 17 1 2 16 -9 10 -13 20 -8 23 11 8 17 44 6 38
-5 -3 -9 12 -8 34 0 26 4 38 12 35 7 -3 10 1 6 9 -3 8 -9 13 -13 10 -5 -3 -6
4 -3 15 3 11 10 17 17 13 6 -3 1 5 -12 19 -15 17 -20 28 -13 33 6 3 11 13 11
21 0 8 -4 13 -8 10 -9 -5 -8 41 1 51 12 12 7 23 -10 24 -11 0 -13 3 -6 6 10 3
10 10 2 25 -8 15 -8 19 0 14 17 -11 13 10 -5 28 -10 10 -11 16 -3 16 9 0 8 4
-1 15 -10 12 -10 15 0 15 10 0 10 3 1 14 -7 8 -11 20 -10 28 3 26 -1 39 -11
33 -6 -3 -7 1 -4 9 3 9 10 13 15 10 15 -9 10 1 -11 26 -11 13 -20 28 -20 34 0
6 5 4 10 -4 6 -9 10 -10 10 -3 0 6 -6 18 -14 25 -9 10 -11 20 -4 31 6 12 5 17
-3 17 -6 0 -9 8 -6 20 3 10 2 19 -2 18 -19 -2 -24 3 -11 12 10 6 11 10 3 10
-7 0 -13 10 -13 23 0 13 -5 28 -12 35 -14 14 -20 45 -7 37 5 -4 6 1 3 9 -3 9
-9 14 -14 11 -4 -2 -6 6 -5 20 2 14 -3 26 -13 30 -14 5 -14 7 -2 15 10 6 11
10 3 10 -22 0 -35 38 -22 63 11 20 11 21 -5 8 -14 -12 -16 -12 -10 3 3 9 1 16
-5 16 -6 0 -8 7 -4 17 4 11 3 14 -5 9 -8 -5 -10 -2 -6 8 3 9 1 16 -5 16 -6 0
-8 7 -5 15 4 10 0 15 -12 16 -12 0 -14 3 -6 6 10 4 9 9 -5 20 -11 9 -12 12 -3
8 13 -6 13 -5 0 7 -8 7 -16 20 -18 28 -2 8 -8 18 -14 21 -6 4 -5 9 3 12 10 4
10 6 2 6 -7 1 -13 8 -13 16 0 8 -5 15 -11 15 -5 0 -7 5 -4 10 3 6 -2 10 -12
10 -15 0 -16 2 -3 10 11 7 11 10 2 10 -7 0 -10 5 -7 10 3 6 -2 10 -12 10 -15
0 -16 2 -3 10 13 8 12 10 -3 10 -14 0 -17 5 -12 21 5 15 4 19 -4 15 -6 -4 -11
0 -11 8 0 9 -8 16 -17 16 -15 0 -16 2 -3 10 11 7 11 10 2 10 -7 0 -10 5 -7 10
3 6 -1 10 -10 10 -9 0 -13 5 -10 10 3 6 1 10 -5 10 -6 0 -9 4 -6 8 3 5 -4 14
-14 22 -10 8 -17 17 -14 22 3 4 0 8 -6 8 -6 0 -8 5 -4 12 5 8 2 9 -9 5 -9 -3
-16 -3 -16 1 3 19 -2 33 -10 28 -5 -4 -7 4 -4 16 3 17 2 19 -5 10 -7 -11 -11
-9 -15 8 -4 15 -10 19 -19 14 -10 -6 -10 -4 1 9 12 15 11 17 -3 17 -10 0 -14
5 -11 10 3 6 -1 10 -10 10 -9 0 -13 5 -10 10 3 6 1 10 -4 10 -6 0 -11 7 -11
16 0 8 -4 12 -10 9 -5 -3 -10 4 -10 16 0 19 -2 20 -17 8 -10 -7 -15 -9 -10 -4
4 4 -1 17 -10 28 -11 12 -12 17 -4 12 10 -5 12 -4 7 3 -4 7 -16 12 -26 12 -10
0 -22 9 -25 20 -3 11 -11 20 -17 20 -6 0 -9 3 -5 6 8 9 -25 44 -43 44 -13 0
-13 2 0 11 12 9 10 10 -8 6 -20 -5 -22 -3 -10 11 10 12 10 14 1 8 -8 -4 -13
-2 -13 4 0 6 -4 8 -10 5 -5 -3 -10 1 -10 9 0 9 -7 16 -15 16 -8 0 -15 5 -15
10 0 6 -7 10 -15 10 -8 0 -15 7 -15 15 0 9 -7 18 -16 22 -9 3 -26 15 -38 27
-40 38 -71 61 -78 58 -5 -1 -8 3 -8 9 0 5 -4 7 -10 4 -5 -3 -10 1 -10 9 0 9
-5 16 -11 16 -5 0 -7 -5 -3 -12 4 -7 3 -8 -4 -4 -6 4 -9 13 -5 22 3 8 2 14 -3
12 -12 -3 -64 31 -87 56 -10 12 -16 14 -12 6 4 -10 2 -9 -8 2 -11 14 -16 15
-26 5 -7 -7 -12 -7 -11 -2 2 6 2 17 1 25 -1 13 -2 13 -11 0 -6 -10 -10 -11
-10 -2 0 6 -8 12 -17 12 -16 0 -16 2 -3 11 12 9 11 10 -7 6 -16 -3 -23 0 -23
9 0 8 -3 13 -7 13 -20 -3 -34 2 -28 11 3 5 0 7 -8 4 -8 -3 -21 2 -30 10 -8 8
-17 12 -21 9 -3 -4 -6 0 -7 8 0 8 -4 6 -9 -6 -8 -19 -9 -19 -9 2 -1 14 -8 23
-23 25 -13 2 -22 9 -20 17 3 12 0 12 -12 2 -11 -9 -16 -9 -22 0 -5 8 -3 9 6 4
9 -5 11 -4 6 4 -6 9 -11 9 -22 0 -11 -9 -14 -9 -14 0 0 7 -4 9 -10 6 -5 -3
-10 1 -10 9 0 9 -3 15 -7 15 -23 -4 -54 2 -49 9 2 4 -9 9 -26 10 -16 1 -37 9
-45 17 -8 8 -19 13 -24 10 -5 -4 -9 -1 -9 4 0 6 -5 11 -11 11 -5 0 -8 -4 -5
-8 3 -5 -1 -9 -9 -9 -8 0 -13 5 -12 11 1 6 -6 10 -17 8 -13 -2 -16 1 -10 10 5
9 2 8 -11 -2 -10 -8 -16 -10 -12 -4 4 7 0 15 -9 18 -12 5 -15 2 -9 -11 5 -14
1 -12 -15 5 -21 23 -36 30 -25 12 3 -6 -1 -7 -9 -4 -9 3 -13 11 -10 16 4 6 -2
5 -14 -1 -15 -8 -23 -8 -28 1 -5 7 -3 8 6 3 9 -6 11 -4 5 4 -5 9 -10 10 -18 2
-7 -7 -15 -5 -24 7 -8 9 -12 12 -9 6 3 -7 -3 -14 -15 -17 -17 -5 -18 -3 -8 9
6 8 9 17 5 21 -3 3 -6 1 -6 -5 0 -7 -7 -12 -16 -12 -9 0 -12 5 -8 13 6 9 5 9
-7 0 -12 -10 -18 -10 -29 0 -7 6 -10 7 -7 2 3 -7 -4 -11 -18 -11 -13 0 -21 4
-19 8 5 8 4 9 -32 13 -12 1 -28 6 -35 10 -11 7 -10 4 1 -10 14 -17 14 -18 -5
-8 -11 6 -28 9 -37 8 -10 -2 -18 1 -18 6 0 6 -5 7 -12 3 -17 -11 -68 -12 -62
-2 3 5 11 5 17 2 7 -4 9 -4 5 1 -11 12 -99 14 -91 2 4 -6 1 -7 -7 -2 -21 13
-91 14 -83 1 3 -6 -3 -3 -14 7 -16 14 -23 15 -29 6z m-2044 -1353 c0 -2 -7 -7
-16 -10 -8 -3 -12 -2 -9 4 6 10 25 14 25 6z m-150 -337 c-7 -11 -14 -18 -17
-15 -3 3 0 12 7 21 18 21 23 19 10 -6z m604 -2575 c3 -8 2 -12 -4 -9 -6 3 -10
10 -10 16 0 14 7 11 14 -7z m3246 -34 c0 -5 -5 -10 -11 -10 -5 0 -7 5 -4 10 3
6 8 10 11 10 2 0 4 -4 4 -10z m-27 -35 c-3 -9 -8 -14 -10 -11 -3 3 -2 9 2 15
9 16 15 13 8 -4z m-1893 -599 c0 -2 -7 -7 -16 -10 -8 -3 -12 -2 -9 4 6 10 25
14 25 6z"/>
<path d="M2755 5050 c3 -5 8 -10 11 -10 2 0 4 5 4 10 0 6 -5 10 -11 10 -5 0
-7 -4 -4 -10z"/>
<path d="M4277 4289 c7 -7 15 -10 18 -7 3 3 -2 9 -12 12 -14 6 -15 5 -6 -5z"/>
<path d="M460 3740 c-9 -6 -10 -10 -3 -10 6 0 15 5 18 10 8 12 4 12 -15 0z"/>
<path d="M4786 3467 c3 -10 9 -15 12 -12 3 3 0 11 -7 18 -10 9 -11 8 -5 -6z"/>
<path d="M4835 3320 c3 -5 8 -10 11 -10 2 0 4 5 4 10 0 6 -5 10 -11 10 -5 0
-7 -4 -4 -10z"/>
<path d="M4275 860 c-3 -5 -1 -10 4 -10 6 0 11 5 11 10 0 6 -2 10 -4 10 -3 0
-8 -4 -11 -10z"/>
</g>
</svg>
